<?xml version="1.0" encoding="utf-8"?><svg viewBox="0 0 75 35" xmlns="http://www.w3.org/2000/svg" xmlns:xlink="http://www.w3.org/1999/xlink"><style>:root>svg{display:none}:root>svg:target{display:block}</style><svg viewBox="0 0 23 16" id="battery" xmlns="http://www.w3.org/2000/svg"><path fill-rule="evenodd" clip-rule="evenodd" d="M18.334.167H.834v15.166h17.5v-2.996h3.833V2.975h-3.834V.167zm-1 1.31h-15.5v12.546h15.5V1.477zm-10.5.937H2.5v10.672h2.98L6.832 2.414zm.555 0h4.445l-1.39 10.672H6L7.39 2.414zm9.278 0h-4.318L11 13.086h4.318l1.349-10.672z"/></svg><svg viewBox="0 0 25 24" id="camera" xmlns="http://www.w3.org/2000/svg"><path fill-rule="evenodd" clip-rule="evenodd" d="M17.188 0H7.813L3.905 4.883H0v18.36h25V4.882h-3.906L17.187 0zM2.148 8.203a1.172 1.172 0 110-2.344 1.172 1.172 0 010 2.344zm3.907 5.86a6.445 6.445 0 1012.89 0 6.445 6.445 0 00-12.89 0zm6.445 3.906a3.906 3.906 0 110-7.813 3.906 3.906 0 010 7.813z"/></svg><svg viewBox="0 0 75 35" id="logo" xmlns="http://www.w3.org/2000/svg"><path d="M37.575 6.639c-1.583 0-3.1.605-4.251 1.656l3.116 3.116a1.882 1.882 0 011.135-.379c.42 0 .812.136 1.135.379l3.116-3.116a6.318 6.318 0 00-4.25-1.656z"/><path d="M37.575 0c-3.36 0-6.564 1.282-8.988 3.56l3.111 3.11a8.726 8.726 0 0111.754 0l3.111-3.11A13.116 13.116 0 0037.575 0zM56.25 7.224v4.393h7.178v4.004H11.572v-4.004h7.178V7.224H0v4.393h7.178v11.002l17.187 4.686v5.206h4.688V35h4.394v-2.49h8.106V35h4.394v-2.49h4.688v-5.205l17.187-4.686V11.617H75V7.224H56.25z"/></svg><svg viewBox="0 0 25 25" id="search" xmlns="http://www.w3.org/2000/svg"><path d="M24.847 23.375l-7.262-7.263a9.845 9.845 0 002.207-6.216C19.792 4.439 15.352 0 9.896 0 4.439 0 0 4.44 0 9.896s4.44 9.896 9.896 9.896c2.354 0 4.516-.83 6.216-2.207l7.263 7.262a.521.521 0 00.736 0l.736-.736a.521.521 0 000-.736zM9.896 17.708c-4.308 0-7.813-3.504-7.813-7.812s3.505-7.813 7.813-7.813 7.812 3.505 7.812 7.813-3.504 7.812-7.812 7.812z"/></svg><svg viewBox="0 0 25 25" id="speed" xmlns="http://www.w3.org/2000/svg"><path fill-rule="evenodd" clip-rule="evenodd" d="M6.208 5.264a9.549 9.549 0 015.51-2.321V0a12.475 12.475 0 00-7.615 3.208l2.105 2.056zm7.075-2.321V0a12.468 12.468 0 017.24 2.882l-2.06 2.109a9.543 9.543 0 00-5.18-2.048zm6.323 3.119l2.053-2.104A12.477 12.477 0 0125 11.718h-2.943a9.55 9.55 0 00-2.451-5.656zm2.385 14.61A12.47 12.47 0 0025 13.282h-2.943a9.544 9.544 0 01-2.172 5.334l2.106 2.056zm-1.094 1.12l-2.105-2.056a9.549 9.549 0 01-5.51 2.321V25a12.475 12.475 0 007.615-3.208zM11.717 25v-2.943a9.548 9.548 0 01-5.483-2.298l-2.053 2.103A12.473 12.473 0 0011.717 25zm-8.64-4.249l2.06-2.109a9.546 9.546 0 01-2.194-5.36H0a12.472 12.472 0 003.078 7.469zM0 11.717h2.943a9.545 9.545 0 012.172-5.333L3.009 4.328A12.47 12.47 0 000 11.718zm17.89-2.96l-5.574 6.293-.006-.009a1.761 1.761 0 11-2.076-2.819l-.007-.008 7.662-3.456z"/></svg><svg viewBox="0 0 25 25" id="storage" xmlns="http://www.w3.org/2000/svg"><path fill-rule="evenodd" clip-rule="evenodd" d="M14.063.02l2.539.004L25 5.127V25H0V0l1.953.003v5.661h2.734V.007L6.641.01v5.654h2.734V.014l1.953.003v5.647h2.735V.021zM2.148 9.96h17.579v11.72H2.148V9.96z"/></svg></svg>